<svg width="750" height="396" viewBox="0 0 750 396" fill="none" xmlns="http://www.w3.org/2000/svg">
<rect width="750" height="132" fill="white"/>
<path d="M81 100.167C99.8697 100.167 115.167 84.8697 115.167 66C115.167 47.1302 99.8697 31.8333 81 31.8333C62.1303 31.8333 46.8333 47.1302 46.8333 66C46.8333 84.8697 62.1303 100.167 81 100.167Z" fill="#00DDA3"/>
<path d="M82.4549 54.6975C81.7878 53.6135 80.2122 53.6136 79.5451 54.6976L68.9356 71.938C68.2351 73.0762 69.054 74.5416 70.3905 74.5416H91.6095C92.9459 74.5416 93.7648 73.0762 93.0644 71.938L82.4549 54.6975Z" fill="white"/>
<path d="M148.987 59V50.7676H157.586V47.1494H148.987V41.6416H158.406V37.8623H144.563V59H148.987ZM169.231 59.3516C174.197 59.3516 177.186 56.2021 177.186 50.9141C177.186 45.6699 174.153 42.4912 169.231 42.4912C164.31 42.4912 161.277 45.6846 161.277 50.9141C161.277 56.2021 164.266 59.3516 169.231 59.3516ZM169.231 55.8652C166.946 55.8652 165.657 54.0635 165.657 50.9141C165.657 47.8086 166.961 45.9775 169.231 45.9775C171.487 45.9775 172.806 47.8086 172.806 50.9141C172.806 54.0488 171.502 55.8652 169.231 55.8652ZM187.835 59.3516C192.801 59.3516 195.789 56.2021 195.789 50.9141C195.789 45.6699 192.757 42.4912 187.835 42.4912C182.913 42.4912 179.881 45.6846 179.881 50.9141C179.881 56.2021 182.869 59.3516 187.835 59.3516ZM187.835 55.8652C185.55 55.8652 184.261 54.0635 184.261 50.9141C184.261 47.8086 185.564 45.9775 187.835 45.9775C190.091 45.9775 191.409 47.8086 191.409 50.9141C191.409 54.0488 190.105 55.8652 187.835 55.8652ZM205.062 59.249C207.303 59.249 209.134 58.209 209.998 56.4658H210.262V59H214.393V36.6758H210.13V45.4209H209.881C209.046 43.6338 207.244 42.5791 205.062 42.5791C201.004 42.5791 198.484 45.7578 198.484 50.8994C198.484 56.0557 200.989 59.249 205.062 59.249ZM206.512 46.1533C208.782 46.1533 210.174 47.9844 210.174 50.9287C210.174 53.8877 208.797 55.6895 206.512 55.6895C204.227 55.6895 202.864 53.9023 202.864 50.9141C202.864 47.9551 204.241 46.1533 206.512 46.1533ZM241.58 59H246.37L242.444 54.8691C243.587 53.3311 244.246 51.0898 244.246 48.5557V47.2373H240.657V48.2773C240.657 50.0352 240.408 51.251 239.91 52.1299L235.853 47.9258C238.812 46.3291 240.159 44.5713 240.159 42.3887C240.159 39.5322 237.713 37.54 234.256 37.54C230.784 37.54 228.235 39.6201 228.235 42.4766C228.235 44.0293 228.924 45.3477 230.857 47.3252C230.74 47.3838 230.008 47.8086 229.92 47.8379C227.195 49.332 225.979 51.0605 225.979 53.4775C225.979 57.0811 228.88 59.4102 233.377 59.4102C235.97 59.4102 238.387 58.6191 239.954 57.2861L241.58 59ZM232.249 49.9473C232.41 49.8594 232.703 49.7129 232.864 49.6543L237.713 54.7666C236.878 55.6455 235.354 56.2021 233.816 56.2021C231.531 56.2021 229.979 54.957 229.979 53.1113C229.979 51.8223 230.711 50.7822 232.249 49.9473ZM233.875 45.8604C232.425 44.4834 231.912 43.6777 231.912 42.7109C231.912 41.3926 232.894 40.4697 234.271 40.4697C235.647 40.4697 236.6 41.3779 236.6 42.7109C236.6 43.9561 235.809 44.8936 233.875 45.8604ZM266.556 59C271.067 59 273.865 56.6562 273.865 52.9502C273.865 50.2256 271.829 48.1162 269.031 47.9111V47.6475C271.199 47.3252 272.854 45.377 272.854 43.1357C272.854 39.8691 270.408 37.8623 266.307 37.8623H257.063V59H266.556ZM261.487 41.2461H265.179C267.288 41.2461 268.504 42.2568 268.504 43.9414C268.504 45.6406 267.2 46.6221 264.812 46.6221H261.487V41.2461ZM261.487 55.6162V49.6104H265.325C267.933 49.6104 269.354 50.6357 269.354 52.5693C269.354 54.5469 267.977 55.6162 265.428 55.6162H261.487ZM284.427 45.7578C286.419 45.7578 287.708 47.0908 287.796 49.2295H280.911C281.058 47.1348 282.449 45.7578 284.427 45.7578ZM287.884 54.4004C287.43 55.4697 286.272 56.0703 284.588 56.0703C282.361 56.0703 280.955 54.5762 280.896 52.1738V51.9541H291.985V50.6504C291.985 45.5234 289.173 42.4912 284.412 42.4912C279.607 42.4912 276.648 45.7432 276.648 51.002C276.648 56.2461 279.549 59.3516 284.471 59.3516C288.426 59.3516 291.209 57.4473 291.854 54.4004H287.884ZM309.651 42.8428H305.154L301.844 54.8838H301.58L298.24 42.8428H293.655L299.266 59H304.07L309.651 42.8428ZM318.851 45.7578C320.843 45.7578 322.132 47.0908 322.22 49.2295H315.335C315.481 47.1348 316.873 45.7578 318.851 45.7578ZM322.308 54.4004C321.854 55.4697 320.696 56.0703 319.012 56.0703C316.785 56.0703 315.379 54.5762 315.32 52.1738V51.9541H326.409V50.6504C326.409 45.5234 323.597 42.4912 318.836 42.4912C314.031 42.4912 311.072 45.7432 311.072 51.002C311.072 56.2461 313.973 59.3516 318.895 59.3516C322.85 59.3516 325.633 57.4473 326.277 54.4004H322.308ZM329.91 59H334.173V50.0498C334.173 47.7793 335.77 46.4023 338.099 46.4023C338.787 46.4023 339.783 46.5342 340.12 46.666V42.7842C339.754 42.6523 339.036 42.5791 338.45 42.5791C336.399 42.5791 334.729 43.8096 334.305 45.4209H334.041V42.8428H329.91V59ZM348.514 56.041C347.034 56.041 345.994 55.3086 345.994 54.1074C345.994 52.9502 346.888 52.291 348.719 52.1592L351.985 51.9541V53.1406C351.985 54.7812 350.491 56.041 348.514 56.041ZM347.107 59.249C349.202 59.249 350.96 58.3701 351.795 56.8906H352.059V59H356.189V47.9697C356.189 44.5127 353.772 42.4912 349.495 42.4912C345.438 42.4912 342.698 44.3662 342.42 47.3545H346.346C346.697 46.3877 347.723 45.8604 349.261 45.8604C351.019 45.8604 351.985 46.6221 351.985 47.9697V49.2881L348.074 49.5225C344.061 49.7568 341.819 51.4561 341.819 54.3857C341.819 57.3447 344.002 59.249 347.107 59.249ZM367.557 55.3965C365.242 55.3965 363.924 53.624 363.924 50.7676C363.924 47.9404 365.257 46.1533 367.557 46.1533C369.856 46.1533 371.248 47.9404 371.248 50.7822C371.248 53.624 369.871 55.3965 367.557 55.3965ZM367.498 65.123C372.376 65.123 375.467 62.7354 375.467 58.9414V42.8428H371.336V45.4355H371.072C370.208 43.6631 368.348 42.5791 366.165 42.5791C362.063 42.5791 359.544 45.7725 359.544 50.7822C359.544 55.6455 362.049 58.7656 366.077 58.7656C368.348 58.7656 370.047 57.8574 370.94 56.1582H371.204V59.1465C371.204 60.9629 369.871 62.0176 367.586 62.0176C365.74 62.0176 364.539 61.3877 364.319 60.3916H360.101C360.364 63.2334 363.206 65.123 367.498 65.123ZM386.731 45.7578C388.724 45.7578 390.013 47.0908 390.101 49.2295H383.216C383.362 47.1348 384.754 45.7578 386.731 45.7578ZM390.188 54.4004C389.734 55.4697 388.577 56.0703 386.893 56.0703C384.666 56.0703 383.26 54.5762 383.201 52.1738V51.9541H394.29V50.6504C394.29 45.5234 391.478 42.4912 386.717 42.4912C381.912 42.4912 378.953 45.7432 378.953 51.002C378.953 56.2461 381.854 59.3516 386.775 59.3516C390.73 59.3516 393.514 57.4473 394.158 54.4004H390.188Z" fill="#33404F"/>
<path opacity="0.5" d="M146.351 97V90.5762H153.011V88.4492H146.351V83.6904H153.623V81.499H143.944V97H146.351ZM156.523 97H158.822V85.3018H156.523V97ZM157.673 83.25C158.532 83.25 159.166 82.6377 159.166 81.8428C159.166 81.0371 158.532 80.4248 157.673 80.4248C156.813 80.4248 156.18 81.0371 156.18 81.8428C156.18 82.6377 156.813 83.25 157.673 83.25ZM172.121 85.3018H169.672L166.771 94.5293H166.589L163.678 85.3018H161.207L165.429 97H167.91L172.121 85.3018ZM178.813 87.042C180.521 87.042 181.639 88.2344 181.692 90.0713H175.784C175.913 88.2451 177.105 87.042 178.813 87.042ZM181.682 93.8418C181.252 94.7549 180.296 95.2598 178.899 95.2598C177.052 95.2598 175.859 93.96 175.784 91.9082V91.7793H184.045V90.9736C184.045 87.2998 182.079 85.0762 178.824 85.0762C175.526 85.0762 173.432 87.4502 173.432 91.1885C173.432 94.9268 175.483 97.2256 178.835 97.2256C181.51 97.2256 183.379 95.9365 183.905 93.8418H181.682ZM202.769 94.7871H195.507V81.499H193.101V97H202.769V94.7871ZM209.955 97.2256C213.371 97.2256 215.466 94.9375 215.466 91.1455C215.466 87.375 213.36 85.0762 209.955 85.0762C206.539 85.0762 204.434 87.375 204.434 91.1455C204.434 94.9375 206.528 97.2256 209.955 97.2256ZM209.955 95.1738C207.946 95.1738 206.818 93.7021 206.818 91.1455C206.818 88.6104 207.946 87.1279 209.955 87.1279C211.953 87.1279 213.092 88.6104 213.092 91.1455C213.092 93.6914 211.953 95.1738 209.955 95.1738ZM222.523 97.1934C224.135 97.1934 225.499 96.4307 226.197 95.1523H226.38V97H228.593V80.7363H226.283V87.1602H226.111C225.478 85.8711 224.124 85.1084 222.523 85.1084C219.569 85.1084 217.668 87.4502 217.668 91.1455C217.668 94.8516 219.548 97.1934 222.523 97.1934ZM223.179 87.1816C225.112 87.1816 226.326 88.7178 226.326 91.1562C226.326 93.6055 225.123 95.1201 223.179 95.1201C221.224 95.1201 220.053 93.627 220.053 91.1455C220.053 88.6855 221.234 87.1816 223.179 87.1816ZM231.794 88.6104C231.794 90.3506 232.825 91.3496 235.049 91.876L237.09 92.3486C238.261 92.6279 238.809 93.0791 238.809 93.7773C238.809 94.7119 237.788 95.3564 236.349 95.3564C234.952 95.3564 234.093 94.7979 233.803 93.8955H231.493C231.697 95.9688 233.513 97.2256 236.295 97.2256C239.088 97.2256 241.14 95.7539 241.14 93.5518C241.14 91.833 240.098 90.877 237.874 90.3613L235.93 89.9102C234.662 89.6201 234.071 89.1797 234.071 88.4814C234.071 87.5684 235.049 86.9561 236.338 86.9561C237.648 86.9561 238.486 87.5039 238.701 88.3633H240.914C240.688 86.3008 238.97 85.0762 236.338 85.0762C233.695 85.0762 231.794 86.5371 231.794 88.6104Z" fill="#33404F"/>
<path d="M622.827 52.335H628.877V48.5557H622.827V42.5791H619.092V48.5557H613.057V52.335H619.092V58.3262H622.827V52.335ZM633.228 44.1904V44.2637H637.329V44.1758C637.329 42.2275 638.735 40.8799 640.786 40.8799C642.72 40.8799 644.097 42.0811 644.097 43.7803C644.097 45.1572 643.35 46.2559 640.376 49.1562L633.477 55.9092V59H648.726V55.3232H639.468V55.0596L643.511 51.207C647.173 47.7646 648.418 45.7871 648.418 43.4873C648.418 39.8545 645.342 37.3203 640.933 37.3203C636.362 37.3203 633.228 40.1035 633.228 44.1904ZM661.045 59.542C666.128 59.542 669.6 57.0225 669.6 53.3164C669.6 50.6211 667.739 48.4824 664.927 47.9551V47.6914C667.241 47.1494 668.735 45.3477 668.735 43.0918C668.735 39.7227 665.542 37.3203 661.06 37.3203C656.562 37.3203 653.369 39.7227 653.369 43.0918C653.369 45.333 654.878 47.1641 657.178 47.6914V47.9551C654.351 48.585 652.52 50.709 652.52 53.3604C652.52 57.0371 655.962 59.542 661.045 59.542ZM661.045 56.2021C658.73 56.2021 657.119 54.8691 657.119 52.9502C657.119 51.0166 658.73 49.6836 661.045 49.6836C663.374 49.6836 664.985 51.0166 664.985 52.9502C664.985 54.8691 663.374 56.2021 661.045 56.2021ZM661.045 46.417C659.097 46.417 657.734 45.2158 657.734 43.5166C657.734 41.8027 659.082 40.6016 661.045 40.6016C663.008 40.6016 664.37 41.8027 664.37 43.5166C664.37 45.2158 663.008 46.417 661.045 46.417ZM675.518 59.3955C677.1 59.3955 678.11 58.3262 678.11 56.8467C678.11 55.3672 677.1 54.3125 675.518 54.3125C673.95 54.3125 672.925 55.3672 672.925 56.8467C672.925 58.3262 673.95 59.3955 675.518 59.3955ZM686.431 59H690.854V37.8623H686.445L680.981 41.627V45.7432L686.167 42.1689H686.431V59ZM701.841 59H706.265V37.8623H701.855L696.392 41.627V45.7432L701.577 42.1689H701.841V59Z" fill="#33404F"/>
<path opacity="0.5" d="M644.677 97V90.5762H651.337V88.4492H644.677V83.6904H651.949V81.499H642.271V97H644.677ZM659.608 87.042C661.316 87.042 662.434 88.2344 662.487 90.0713H656.579C656.708 88.2451 657.9 87.042 659.608 87.042ZM662.477 93.8418C662.047 94.7549 661.091 95.2598 659.694 95.2598C657.847 95.2598 656.654 93.96 656.579 91.9082V91.7793H664.84V90.9736C664.84 87.2998 662.874 85.0762 659.619 85.0762C656.321 85.0762 654.227 87.4502 654.227 91.1885C654.227 94.9268 656.278 97.2256 659.63 97.2256C662.305 97.2256 664.174 95.9365 664.7 93.8418H662.477ZM673.81 97.1934C676.764 97.1934 678.644 94.8516 678.644 91.1455C678.644 87.4287 676.774 85.1084 673.81 85.1084C672.209 85.1084 670.834 85.8818 670.211 87.1602H670.028V80.7363H667.719V97H669.942V95.1523H670.114C670.812 96.4414 672.177 97.1934 673.81 97.1934ZM673.144 87.1816C675.099 87.1816 676.27 88.6855 676.27 91.1455C676.27 93.627 675.099 95.1201 673.144 95.1201C671.199 95.1201 669.996 93.6055 669.985 91.1562C669.996 88.707 671.21 87.1816 673.144 87.1816ZM687.312 85.9785V86.0107H689.59V85.9785C689.59 84.3242 690.739 83.207 692.447 83.207C694.048 83.207 695.262 84.2705 695.262 85.6885C695.262 86.8271 694.757 87.6436 692.684 89.8027L687.441 95.2598V97H697.883V94.8408H690.793V94.6582L694.241 91.167C696.841 88.5352 697.636 87.1924 697.636 85.5488C697.636 82.9922 695.466 81.123 692.522 81.123C689.472 81.123 687.312 83.1211 687.312 85.9785ZM704.758 97H707.164V81.499H704.769L700.687 84.3779V86.8379L704.575 84.0879H704.758V97Z" fill="#33404F"/>
<rect width="750" height="132" transform="translate(0 132)" fill="white"/>
<path d="M81 232.167C99.8697 232.167 115.167 216.87 115.167 198C115.167 179.13 99.8697 163.833 81 163.833C62.1303 163.833 46.8333 179.13 46.8333 198C46.8333 216.87 62.1303 232.167 81 232.167Z" fill="#33404F"/>
<path d="M80.1483 210.283C80.5388 210.917 81.4612 210.917 81.8516 210.283L93.7288 190.982C94.1388 190.316 93.6594 189.458 92.8771 189.458L69.1229 189.458C68.3406 189.458 67.8612 190.316 68.2712 190.982L80.1483 210.283Z" fill="white"/>
<path d="M143.611 185.126C143.772 189.066 147.039 191.542 152.078 191.542C157.381 191.542 160.647 188.935 160.647 184.672C160.647 181.391 158.816 179.56 154.568 178.666L152.02 178.124C149.544 177.597 148.533 176.85 148.533 175.546C148.533 173.935 149.998 172.909 152.21 172.909C154.349 172.909 155.901 174.022 156.106 175.692H160.267C160.135 171.928 156.839 169.32 152.181 169.32C147.303 169.32 144.095 171.942 144.095 175.927C144.095 179.149 145.984 181.156 149.837 181.962L152.591 182.548C155.184 183.104 156.238 183.881 156.238 185.229C156.238 186.825 154.612 187.938 152.312 187.938C149.822 187.938 148.094 186.84 147.889 185.126H143.611ZM164.559 191H168.821V181.728C168.821 179.633 170.052 178.212 172.19 178.212C174.124 178.212 175.164 179.369 175.164 181.61V191H179.427V180.6C179.427 176.718 177.361 174.535 173.89 174.535C171.517 174.535 169.759 175.648 169.012 177.494H168.748V168.676H164.559V191ZM190.735 191.352C195.701 191.352 198.689 188.202 198.689 182.914C198.689 177.67 195.657 174.491 190.735 174.491C185.813 174.491 182.781 177.685 182.781 182.914C182.781 188.202 185.77 191.352 190.735 191.352ZM190.735 187.865C188.45 187.865 187.161 186.063 187.161 182.914C187.161 179.809 188.465 177.978 190.735 177.978C192.991 177.978 194.31 179.809 194.31 182.914C194.31 186.049 193.006 187.865 190.735 187.865ZM211.507 174.579C209.28 174.579 207.449 175.678 206.57 177.494H206.307V174.843H202.176V196.361H206.438V188.524H206.702C207.493 190.238 209.266 191.249 211.58 191.249C215.623 191.249 218.099 188.129 218.099 182.914C218.099 177.685 215.594 174.579 211.507 174.579ZM210.057 187.689C207.801 187.689 206.395 185.888 206.395 182.929C206.395 179.97 207.801 178.153 210.071 178.153C212.342 178.153 213.719 179.955 213.719 182.914C213.719 185.902 212.356 187.689 210.057 187.689ZM230.901 174.579C228.675 174.579 226.844 175.678 225.965 177.494H225.701V174.843H221.57V196.361H225.833V188.524H226.097C226.888 190.238 228.66 191.249 230.975 191.249C235.018 191.249 237.493 188.129 237.493 182.914C237.493 177.685 234.988 174.579 230.901 174.579ZM229.451 187.689C227.195 187.689 225.789 185.888 225.789 182.929C225.789 179.97 227.195 178.153 229.466 178.153C231.736 178.153 233.113 179.955 233.113 182.914C233.113 185.902 231.751 187.689 229.451 187.689ZM240.994 191H245.257V174.843H240.994V191ZM243.133 172.587C244.656 172.587 245.652 171.693 245.652 170.434C245.652 169.159 244.656 168.28 243.133 168.28C241.595 168.28 240.613 169.159 240.613 170.434C240.613 171.693 241.595 172.587 243.133 172.587ZM249.578 191H253.841V181.684C253.841 179.56 255.057 178.168 257.034 178.168C259.056 178.168 260.008 179.34 260.008 181.566V191H264.271V180.556C264.271 176.688 262.337 174.491 258.748 174.491C256.36 174.491 254.72 175.619 253.973 177.436H253.709V174.843H249.578V191ZM275.594 187.396C273.279 187.396 271.961 185.624 271.961 182.768C271.961 179.94 273.294 178.153 275.594 178.153C277.894 178.153 279.285 179.94 279.285 182.782C279.285 185.624 277.908 187.396 275.594 187.396ZM275.535 197.123C280.413 197.123 283.504 194.735 283.504 190.941V174.843H279.373V177.436H279.109C278.245 175.663 276.385 174.579 274.202 174.579C270.101 174.579 267.581 177.772 267.581 182.782C267.581 187.646 270.086 190.766 274.114 190.766C276.385 190.766 278.084 189.857 278.978 188.158H279.241V191.146C279.241 192.963 277.908 194.018 275.623 194.018C273.777 194.018 272.576 193.388 272.356 192.392H268.138C268.401 195.233 271.243 197.123 275.535 197.123Z" fill="#33404F"/>
<path opacity="0.5" d="M156.706 229V213.499H154.311V220.009H146.351V213.499H143.944V229H146.351V222.2H154.311V229H156.706ZM171.455 229H174.27L171.509 226.046C172.357 224.821 172.798 223.113 172.798 220.943V220.363H170.703V220.857C170.703 222.501 170.478 223.607 170.037 224.435L166.481 220.739C168.802 219.515 169.769 218.301 169.769 216.711C169.769 214.648 168.05 213.188 165.676 213.188C163.312 213.188 161.551 214.691 161.551 216.732C161.551 217.86 162.066 218.838 163.495 220.32C163.355 220.385 162.969 220.61 162.861 220.664C160.82 221.749 159.854 223.092 159.854 224.896C159.854 227.518 162.002 229.29 165.16 229.29C167.051 229.29 168.845 228.656 170.112 227.582L171.455 229ZM164.193 221.975C164.333 221.899 164.591 221.781 164.698 221.738L168.791 226.078C168.028 226.852 166.696 227.346 165.386 227.346C163.452 227.346 162.152 226.282 162.152 224.714C162.152 223.618 162.829 222.684 164.193 221.975ZM165.289 219.461C164.129 218.333 163.71 217.656 163.71 216.861C163.71 215.766 164.537 214.992 165.687 214.992C166.857 214.992 167.663 215.744 167.663 216.851C167.663 217.871 167.019 218.602 165.289 219.461ZM192.198 229V213.499H189.384L184.442 225.272H184.26L179.329 213.499H176.515V229H178.749V217.807H178.899L183.443 228.549H185.27L189.813 217.807H189.964V229H192.198ZM205.551 229H207.957V213.499H205.562L201.479 216.378V218.838L205.368 216.088H205.551V229ZM212.34 217.979V218.011H214.617V217.979C214.617 216.324 215.767 215.207 217.475 215.207C219.075 215.207 220.289 216.271 220.289 217.688C220.289 218.827 219.784 219.644 217.711 221.803L212.469 227.26V229H222.91V226.841H215.82V226.658L219.269 223.167C221.868 220.535 222.663 219.192 222.663 217.549C222.663 214.992 220.493 213.123 217.55 213.123C214.499 213.123 212.34 215.121 212.34 217.979ZM231.439 229.376C234.78 229.376 237.047 227.195 237.047 223.983C237.047 220.933 234.974 218.784 232.03 218.784C230.559 218.784 229.463 219.278 228.754 220.191H228.571L228.979 215.647H236.145V213.499H227.1L226.283 222.372H228.485C229.087 221.373 230.161 220.782 231.493 220.782C233.384 220.782 234.694 222.104 234.694 224.048C234.694 225.981 233.395 227.26 231.461 227.26C229.764 227.26 228.507 226.261 228.324 224.757H226.036C226.176 227.475 228.356 229.376 231.439 229.376ZM240.688 229H243.213L249.959 215.68V213.499H239.399V215.637H247.521V215.809L240.688 229ZM265.911 220.396L266.749 218.859L263.924 217.56L266.749 216.249L265.911 214.691L263.333 216.539L263.602 213.392H261.883L262.151 216.539L259.573 214.691L258.735 216.249L261.571 217.56L258.735 218.859L259.573 220.396L262.151 218.591L261.883 221.695H263.602L263.333 218.602L265.911 220.396ZM276.997 220.396L277.835 218.859L275.01 217.56L277.835 216.249L276.997 214.691L274.419 216.539L274.688 213.392H272.969L273.237 216.539L270.659 214.691L269.821 216.249L272.657 217.56L269.821 218.859L270.659 220.396L273.237 218.591L272.969 221.695H274.688L274.419 218.602L276.997 220.396ZM288.083 220.396L288.921 218.859L286.096 217.56L288.921 216.249L288.083 214.691L285.505 216.539L285.773 213.392H284.055L284.323 216.539L281.745 214.691L280.907 216.249L283.743 217.56L280.907 218.859L281.745 220.396L284.323 218.591L284.055 221.695H285.773L285.505 218.602L288.083 220.396ZM299.169 220.396L300.007 218.859L297.182 217.56L300.007 216.249L299.169 214.691L296.591 216.539L296.859 213.392H295.141L295.409 216.539L292.831 214.691L291.993 216.249L294.829 217.56L291.993 218.859L292.831 220.396L295.409 218.591L295.141 221.695H296.859L296.591 218.602L299.169 220.396Z" fill="#33404F"/>
<path d="M607.505 184.467V180.468H597.881V184.467H607.505ZM617.202 191H621.626V169.862H617.217L611.753 173.627V177.743L616.938 174.169H617.202V191ZM635.483 191.542C640.332 191.542 643.569 188.48 643.569 183.998C643.569 179.853 640.728 176.908 636.714 176.908C634.619 176.908 633.125 177.685 632.231 178.974H631.968L632.437 173.539H642.295V169.862H629.009L627.954 182.123H631.909C632.642 180.937 633.887 180.219 635.527 180.219C637.769 180.219 639.351 181.771 639.351 184.101C639.351 186.4 637.783 187.924 635.513 187.924C633.506 187.924 631.953 186.752 631.704 184.994H627.617C627.749 188.773 630.884 191.542 635.483 191.542ZM648.359 191H652.988L661.821 173.539V169.848H646.704V173.495H657.368V173.759L648.359 191ZM665 191.396C666.582 191.396 667.593 190.326 667.593 188.847C667.593 187.367 666.582 186.312 665 186.312C663.433 186.312 662.407 187.367 662.407 188.847C662.407 190.326 663.433 191.396 665 191.396ZM679.385 191.542C684.116 191.542 687.471 188.422 687.471 184.027C687.471 179.984 684.526 177.011 680.513 177.011C678.052 177.011 676.089 178.139 675.122 180.131H674.858C674.771 175.751 676.528 172.953 679.429 172.953C681.084 172.953 682.402 173.832 682.812 175.224H687.192C686.592 171.693 683.472 169.32 679.458 169.32C673.95 169.32 670.64 173.568 670.64 180.585C670.64 183.485 671.24 185.917 672.412 187.719C673.862 190.194 676.323 191.542 679.385 191.542ZM679.341 187.909C677.173 187.909 675.518 186.269 675.518 184.115C675.518 182.006 677.144 180.424 679.355 180.424C681.567 180.424 683.179 182.006 683.179 184.159C683.179 186.283 681.509 187.909 679.341 187.909ZM701.357 191H705.576V187.309H708.345V183.632H705.576V169.862H699.38C695.674 175.443 692.92 179.809 691.016 183.397V187.309H701.357V191ZM694.985 183.529C697.402 179.149 699.292 176.19 701.226 173.305H701.46V183.764H694.985V183.529Z" fill="#33404F"/>
<path opacity="0.5" d="M641.809 224.972C641.809 227.636 643.731 229.376 646.535 229.376C649.521 229.376 651.326 227.582 651.326 224.467V213.499H648.92V224.456C648.92 226.186 648.05 227.109 646.514 227.109C645.139 227.109 644.204 226.25 644.172 224.972H641.809ZM658.695 227.249C657.438 227.249 656.525 226.637 656.525 225.584C656.525 224.553 657.256 224.005 658.867 223.897L661.725 223.715V224.692C661.725 226.143 660.436 227.249 658.695 227.249ZM658.104 229.193C659.641 229.193 660.919 228.527 661.617 227.356H661.8V229H664.023V221.008C664.023 218.537 662.369 217.076 659.437 217.076C656.783 217.076 654.893 218.365 654.656 220.374H656.891C657.148 219.547 658.04 219.074 659.329 219.074C660.908 219.074 661.725 219.772 661.725 221.008V222.018L658.556 222.2C655.773 222.372 654.205 223.586 654.205 225.691C654.205 227.829 655.849 229.193 658.104 229.193ZM667.311 229H669.62V222.157C669.62 220.331 670.705 219.192 672.413 219.192C674.121 219.192 674.938 220.127 674.938 222.007V229H677.247V221.427C677.247 218.645 675.808 217.076 673.197 217.076C671.436 217.076 670.275 217.86 669.706 219.16H669.534V217.302H667.311V229ZM690.234 229H692.641V213.499H690.245L686.163 216.378V218.838L690.052 216.088H690.234V229ZM704.285 229H706.605V226.003H708.743V223.854H706.605V213.499H703.179C700.418 217.635 698.108 221.233 696.723 223.769V226.003H704.285V229ZM699.032 223.758C700.858 220.589 702.642 217.839 704.178 215.615H704.317V223.908H699.032V223.758Z" fill="#33404F"/>
<rect width="750" height="132" transform="translate(0 264)" fill="white"/>
<path d="M81 364.167C99.8697 364.167 115.167 348.87 115.167 330C115.167 311.13 99.8697 295.833 81 295.833C62.1303 295.833 46.8333 311.13 46.8333 330C46.8333 348.87 62.1303 364.167 81 364.167Z" fill="#00DDA3"/>
<path d="M82.4549 318.698C81.7878 317.614 80.2122 317.614 79.5451 318.698L68.9356 335.938C68.2351 337.076 69.054 338.542 70.3905 338.542H91.6095C92.9459 338.542 93.7648 337.076 93.0644 335.938L82.4549 318.698Z" fill="white"/>
<path d="M143.611 317.126C143.772 321.066 147.039 323.542 152.078 323.542C157.381 323.542 160.647 320.935 160.647 316.672C160.647 313.391 158.816 311.56 154.568 310.666L152.02 310.124C149.544 309.597 148.533 308.85 148.533 307.546C148.533 305.935 149.998 304.909 152.21 304.909C154.349 304.909 155.901 306.022 156.106 307.692H160.267C160.135 303.928 156.839 301.32 152.181 301.32C147.303 301.32 144.095 303.942 144.095 307.927C144.095 311.149 145.984 313.156 149.837 313.962L152.591 314.548C155.184 315.104 156.238 315.881 156.238 317.229C156.238 318.825 154.612 319.938 152.312 319.938C149.822 319.938 148.094 318.84 147.889 317.126H143.611ZM170.008 320.041C168.528 320.041 167.488 319.309 167.488 318.107C167.488 316.95 168.382 316.291 170.213 316.159L173.479 315.954V317.141C173.479 318.781 171.985 320.041 170.008 320.041ZM168.602 323.249C170.696 323.249 172.454 322.37 173.289 320.891H173.553V323H177.684V311.97C177.684 308.513 175.267 306.491 170.989 306.491C166.932 306.491 164.192 308.366 163.914 311.354H167.84C168.191 310.388 169.217 309.86 170.755 309.86C172.513 309.86 173.479 310.622 173.479 311.97V313.288L169.568 313.522C165.555 313.757 163.313 315.456 163.313 318.386C163.313 321.345 165.496 323.249 168.602 323.249ZM182.02 323H186.282V300.676H182.02V323ZM196.551 320.041C195.071 320.041 194.031 319.309 194.031 318.107C194.031 316.95 194.925 316.291 196.756 316.159L200.022 315.954V317.141C200.022 318.781 198.528 320.041 196.551 320.041ZM195.145 323.249C197.239 323.249 198.997 322.37 199.832 320.891H200.096V323H204.227V311.97C204.227 308.513 201.81 306.491 197.532 306.491C193.475 306.491 190.735 308.366 190.457 311.354H194.383C194.734 310.388 195.76 309.86 197.298 309.86C199.056 309.86 200.022 310.622 200.022 311.97V313.288L196.111 313.522C192.098 313.757 189.856 315.456 189.856 318.386C189.856 321.345 192.039 323.249 195.145 323.249ZM208.416 323H212.679V314.05C212.679 311.779 214.275 310.402 216.604 310.402C217.293 310.402 218.289 310.534 218.626 310.666V306.784C218.26 306.652 217.542 306.579 216.956 306.579C214.905 306.579 213.235 307.81 212.811 309.421H212.547V306.843H208.416V323ZM223.724 328.874C227.752 328.874 229.729 327.409 231.106 323.249L236.673 306.843H232.161L228.763 319.089H228.499L225.101 306.843H220.398L226.067 323.103L225.921 323.688C225.569 324.919 224.661 325.432 223.064 325.432C222.889 325.432 222.244 325.432 222.098 325.402V328.83C222.273 328.859 223.562 328.874 223.724 328.874ZM252.229 323V301.862H247.806V323H252.229ZM256.932 323H261.194V313.684C261.194 311.56 262.41 310.168 264.388 310.168C266.409 310.168 267.361 311.34 267.361 313.566V323H271.624V312.556C271.624 308.688 269.69 306.491 266.102 306.491C263.714 306.491 262.073 307.619 261.326 309.436H261.062V306.843H256.932V323ZM290.066 312.541C289.715 308.864 287.151 306.491 282.874 306.491C277.82 306.491 274.979 309.523 274.979 314.885C274.979 320.305 277.835 323.352 282.874 323.352C287.078 323.352 289.715 321.022 290.066 317.404H286.082C285.76 319.001 284.617 319.851 282.874 319.851C280.589 319.851 279.285 318.107 279.285 314.885C279.285 311.706 280.574 309.992 282.874 309.992C284.69 309.992 285.789 311.003 286.082 312.541H290.066ZM300.569 323.352C305.535 323.352 308.523 320.202 308.523 314.914C308.523 309.67 305.491 306.491 300.569 306.491C295.647 306.491 292.615 309.685 292.615 314.914C292.615 320.202 295.604 323.352 300.569 323.352ZM300.569 319.865C298.284 319.865 296.995 318.063 296.995 314.914C296.995 311.809 298.299 309.978 300.569 309.978C302.825 309.978 304.144 311.809 304.144 314.914C304.144 318.049 302.84 319.865 300.569 319.865ZM312.01 323H316.272V313.273C316.272 311.472 317.459 310.168 319.129 310.168C320.799 310.168 321.795 311.149 321.795 312.863V323H325.896V313.112C325.896 311.398 327.01 310.168 328.738 310.168C330.54 310.168 331.434 311.12 331.434 313.039V323H335.696V311.911C335.696 308.586 333.689 306.491 330.467 306.491C328.211 306.491 326.351 307.678 325.604 309.479H325.34C324.695 307.604 323.143 306.491 320.872 306.491C318.748 306.491 317.063 307.634 316.404 309.479H316.141V306.843H312.01V323ZM346.829 309.758C348.821 309.758 350.11 311.091 350.198 313.229H343.313C343.46 311.135 344.852 309.758 346.829 309.758ZM350.286 318.4C349.832 319.47 348.675 320.07 346.99 320.07C344.764 320.07 343.357 318.576 343.299 316.174V315.954H354.388V314.65C354.388 309.523 351.575 306.491 346.814 306.491C342.01 306.491 339.051 309.743 339.051 315.002C339.051 320.246 341.951 323.352 346.873 323.352C350.828 323.352 353.611 321.447 354.256 318.4H350.286Z" fill="#33404F"/>
<path opacity="0.5" d="M143.944 345.499V361H146.351V355.779H149.938C152.979 355.779 155.127 353.695 155.127 350.666C155.127 347.594 153.043 345.499 150.014 345.499H143.944ZM146.351 347.626H149.38C151.496 347.626 152.667 348.7 152.667 350.666C152.667 352.589 151.453 353.663 149.38 353.663H146.351V347.626ZM158.07 361H160.38V354.168C160.38 352.396 161.433 351.203 163.323 351.203C164.956 351.203 165.826 352.148 165.826 354.018V361H168.136V353.448C168.136 350.666 166.6 349.087 164.107 349.087C162.346 349.087 161.11 349.871 160.541 351.182H160.358V344.736H158.07V361ZM175.215 359.249C173.958 359.249 173.045 358.637 173.045 357.584C173.045 356.553 173.775 356.005 175.387 355.897L178.244 355.715V356.692C178.244 358.143 176.955 359.249 175.215 359.249ZM174.624 361.193C176.16 361.193 177.438 360.527 178.137 359.356H178.319V361H180.543V353.008C180.543 350.537 178.889 349.076 175.956 349.076C173.303 349.076 171.412 350.365 171.176 352.374H173.41C173.668 351.547 174.56 351.074 175.849 351.074C177.428 351.074 178.244 351.772 178.244 353.008V354.018L175.075 354.2C172.293 354.372 170.725 355.586 170.725 357.691C170.725 359.829 172.368 361.193 174.624 361.193ZM183.83 361H186.14V354.093C186.14 352.449 187.375 351.343 189.126 351.343C189.534 351.343 190.222 351.418 190.415 351.482V349.205C190.168 349.141 189.728 349.108 189.384 349.108C187.858 349.108 186.559 349.946 186.226 351.096H186.054V349.302H183.83V361ZM196.377 359.249C195.12 359.249 194.207 358.637 194.207 357.584C194.207 356.553 194.938 356.005 196.549 355.897L199.406 355.715V356.692C199.406 358.143 198.117 359.249 196.377 359.249ZM195.786 361.193C197.322 361.193 198.601 360.527 199.299 359.356H199.481V361H201.705V353.008C201.705 350.537 200.051 349.076 197.118 349.076C194.465 349.076 192.574 350.365 192.338 352.374H194.572C194.83 351.547 195.722 351.074 197.011 351.074C198.59 351.074 199.406 351.772 199.406 353.008V354.018L196.237 354.2C193.455 354.372 191.887 355.586 191.887 357.691C191.887 359.829 193.53 361.193 195.786 361.193ZM209.934 361.226C213.35 361.226 215.444 358.938 215.444 355.146C215.444 351.375 213.339 349.076 209.934 349.076C206.518 349.076 204.412 351.375 204.412 355.146C204.412 358.938 206.507 361.226 209.934 361.226ZM209.934 359.174C207.925 359.174 206.797 357.702 206.797 355.146C206.797 352.61 207.925 351.128 209.934 351.128C211.932 351.128 213.07 352.61 213.07 355.146C213.07 357.691 211.932 359.174 209.934 359.174ZM217.958 352.61C217.958 354.351 218.989 355.35 221.213 355.876L223.254 356.349C224.425 356.628 224.973 357.079 224.973 357.777C224.973 358.712 223.952 359.356 222.513 359.356C221.116 359.356 220.257 358.798 219.967 357.896H217.657C217.861 359.969 219.677 361.226 222.459 361.226C225.252 361.226 227.304 359.754 227.304 357.552C227.304 355.833 226.262 354.877 224.038 354.361L222.094 353.91C220.826 353.62 220.235 353.18 220.235 352.481C220.235 351.568 221.213 350.956 222.502 350.956C223.812 350.956 224.65 351.504 224.865 352.363H227.078C226.853 350.301 225.134 349.076 222.502 349.076C219.859 349.076 217.958 350.537 217.958 352.61ZM242.708 361V347.69H247.574V345.499H235.425V347.69H240.302V361H242.708ZM252.956 351.042C254.664 351.042 255.781 352.234 255.835 354.071H249.927C250.056 352.245 251.248 351.042 252.956 351.042ZM255.824 357.842C255.395 358.755 254.438 359.26 253.042 359.26C251.194 359.26 250.002 357.96 249.927 355.908V355.779H258.188V354.974C258.188 351.3 256.222 349.076 252.967 349.076C249.669 349.076 247.574 351.45 247.574 355.188C247.574 358.927 249.626 361.226 252.978 361.226C255.652 361.226 257.521 359.937 258.048 357.842H255.824ZM270.863 353.126C270.562 350.784 268.79 349.076 265.857 349.076C262.452 349.076 260.379 351.364 260.379 355.113C260.379 358.927 262.463 361.226 265.868 361.226C268.758 361.226 270.562 359.593 270.863 357.24H268.618C268.317 358.497 267.318 359.163 265.857 359.163C263.935 359.163 262.742 357.648 262.742 355.113C262.742 352.621 263.924 351.139 265.857 351.139C267.404 351.139 268.35 351.987 268.618 353.126H270.863ZM273.613 361H275.923V354.168C275.923 352.396 276.976 351.203 278.866 351.203C280.499 351.203 281.369 352.148 281.369 354.018V361H283.679V353.448C283.679 350.666 282.143 349.087 279.65 349.087C277.889 349.087 276.653 349.871 276.084 351.182H275.901V344.736H273.613V361ZM288.416 365.05L290.199 358.68H287.782L286.783 365.05H288.416ZM302.563 361V345.499H300.157V361H302.563ZM306.184 361H308.493V354.157C308.493 352.331 309.578 351.192 311.286 351.192C312.994 351.192 313.811 352.127 313.811 354.007V361H316.12V353.427C316.12 350.645 314.681 349.076 312.07 349.076C310.309 349.076 309.148 349.86 308.579 351.16H308.407V349.302H306.184V361ZM329.279 353.126C328.979 350.784 327.206 349.076 324.273 349.076C320.868 349.076 318.795 351.364 318.795 355.113C318.795 358.927 320.879 361.226 324.284 361.226C327.174 361.226 328.979 359.593 329.279 357.24H327.034C326.733 358.497 325.734 359.163 324.273 359.163C322.351 359.163 321.158 357.648 321.158 355.113C321.158 352.621 322.34 351.139 324.273 351.139C325.82 351.139 326.766 351.987 327.034 353.126H329.279Z" fill="#33404F"/>
<path d="M563.12 316.335H569.17V312.556H563.12V306.579H559.385V312.556H553.35V316.335H559.385V322.326H563.12V316.335ZM578.926 313.83H581.548C583.921 313.83 585.371 314.973 585.371 316.818C585.371 318.62 583.833 319.865 581.621 319.865C579.351 319.865 577.842 318.737 577.71 316.95H573.477C573.667 320.935 576.86 323.542 581.577 323.542C586.396 323.542 589.883 320.861 589.883 317.155C589.883 314.372 588.066 312.438 585.166 312.116V311.853C587.524 311.369 589.062 309.465 589.062 307.019C589.062 303.693 585.942 301.32 581.606 301.32C576.992 301.32 574.019 303.84 573.872 307.839H577.959C578.076 306.008 579.438 304.851 581.489 304.851C583.555 304.851 584.873 305.935 584.873 307.634C584.873 309.362 583.511 310.534 581.504 310.534H578.926V313.83ZM595.449 328.728L598.115 319.572H593.94L592.593 328.728H595.449ZM610.098 323.542C615.181 323.542 618.652 321.022 618.652 317.316C618.652 314.621 616.792 312.482 613.979 311.955V311.691C616.294 311.149 617.788 309.348 617.788 307.092C617.788 303.723 614.595 301.32 610.112 301.32C605.615 301.32 602.422 303.723 602.422 307.092C602.422 309.333 603.931 311.164 606.23 311.691V311.955C603.403 312.585 601.572 314.709 601.572 317.36C601.572 321.037 605.015 323.542 610.098 323.542ZM610.098 320.202C607.783 320.202 606.172 318.869 606.172 316.95C606.172 315.017 607.783 313.684 610.098 313.684C612.427 313.684 614.038 315.017 614.038 316.95C614.038 318.869 612.427 320.202 610.098 320.202ZM610.098 310.417C608.149 310.417 606.787 309.216 606.787 307.517C606.787 305.803 608.135 304.602 610.098 304.602C612.061 304.602 613.423 305.803 613.423 307.517C613.423 309.216 612.061 310.417 610.098 310.417ZM630.649 323.542C635.879 323.542 639.043 319.396 639.043 312.409C639.043 305.393 635.835 301.32 630.649 301.32C625.449 301.32 622.256 305.393 622.256 312.395C622.256 319.411 625.42 323.542 630.649 323.542ZM630.649 319.938C628.232 319.938 626.738 317.331 626.738 312.395C626.738 307.487 628.247 304.938 630.649 304.938C633.066 304.938 634.561 307.473 634.561 312.395C634.561 317.346 633.081 319.938 630.649 319.938ZM651.187 323.542C656.416 323.542 659.58 319.396 659.58 312.409C659.58 305.393 656.372 301.32 651.187 301.32C645.986 301.32 642.793 305.393 642.793 312.395C642.793 319.411 645.957 323.542 651.187 323.542ZM651.187 319.938C648.77 319.938 647.275 317.331 647.275 312.395C647.275 307.487 648.784 304.938 651.187 304.938C653.604 304.938 655.098 307.473 655.098 312.395C655.098 317.346 653.618 319.938 651.187 319.938ZM665.117 323.396C666.699 323.396 667.71 322.326 667.71 320.847C667.71 319.367 666.699 318.312 665.117 318.312C663.55 318.312 662.524 319.367 662.524 320.847C662.524 322.326 663.55 323.396 665.117 323.396ZM679.194 323.542C684.424 323.542 687.588 319.396 687.588 312.409C687.588 305.393 684.38 301.32 679.194 301.32C673.994 301.32 670.801 305.393 670.801 312.395C670.801 319.411 673.965 323.542 679.194 323.542ZM679.194 319.938C676.777 319.938 675.283 317.331 675.283 312.395C675.283 307.487 676.792 304.938 679.194 304.938C681.611 304.938 683.105 307.473 683.105 312.395C683.105 317.346 681.626 319.938 679.194 319.938ZM699.731 323.542C704.961 323.542 708.125 319.396 708.125 312.409C708.125 305.393 704.917 301.32 699.731 301.32C694.531 301.32 691.338 305.393 691.338 312.395C691.338 319.411 694.502 323.542 699.731 323.542ZM699.731 319.938C697.314 319.938 695.82 317.331 695.82 312.395C695.82 307.487 697.329 304.938 699.731 304.938C702.148 304.938 703.643 307.473 703.643 312.395C703.643 317.346 702.163 319.938 699.731 319.938Z" fill="#33404F"/>
<path opacity="0.5" d="M642.195 356.972C642.195 359.636 644.118 361.376 646.922 361.376C649.908 361.376 651.713 359.582 651.713 356.467V345.499H649.307V356.456C649.307 358.186 648.437 359.109 646.9 359.109C645.525 359.109 644.591 358.25 644.559 356.972H642.195ZM659.082 359.249C657.825 359.249 656.912 358.637 656.912 357.584C656.912 356.553 657.643 356.005 659.254 355.897L662.111 355.715V356.692C662.111 358.143 660.822 359.249 659.082 359.249ZM658.491 361.193C660.027 361.193 661.306 360.527 662.004 359.356H662.187V361H664.41V353.008C664.41 350.537 662.756 349.076 659.823 349.076C657.17 349.076 655.279 350.365 655.043 352.374H657.277C657.535 351.547 658.427 351.074 659.716 351.074C661.295 351.074 662.111 351.772 662.111 353.008V354.018L658.942 354.2C656.16 354.372 654.592 355.586 654.592 357.691C654.592 359.829 656.235 361.193 658.491 361.193ZM667.697 361H670.007V354.157C670.007 352.331 671.092 351.192 672.8 351.192C674.508 351.192 675.324 352.127 675.324 354.007V361H677.634V353.427C677.634 350.645 676.194 349.076 673.584 349.076C671.822 349.076 670.662 349.86 670.093 351.16H669.921V349.302H667.697V361ZM690.621 361H693.027V345.499H690.632L686.55 348.378V350.838L690.438 348.088H690.621V361ZM700.923 354.039H702.878C704.908 354.039 706.165 355.038 706.165 356.639C706.165 358.164 704.833 359.249 702.942 359.249C701.062 359.249 699.773 358.293 699.623 356.789H697.313C697.453 359.561 699.688 361.376 702.942 361.376C706.176 361.376 708.625 359.399 708.625 356.768C708.625 354.694 707.336 353.244 705.22 352.997V352.814C706.928 352.428 707.991 351.053 707.991 349.227C707.991 346.896 705.778 345.123 702.899 345.123C699.795 345.123 697.775 346.853 697.614 349.656H699.902C700.031 348.131 701.138 347.196 702.824 347.196C704.511 347.196 705.617 348.142 705.617 349.581C705.617 351.042 704.468 352.052 702.803 352.052H700.923V354.039Z" fill="#33404F"/>
</svg>
