<svg width="750" height="60" viewBox="0 0 750 60" fill="none" xmlns="http://www.w3.org/2000/svg">
<path d="M68 30H47L68 9V30Z" fill="white"/>
<path d="M68 30H89L68 51V30Z" fill="white"/>
<path d="M89 9V30L68 9H89Z" fill="white"/>
<path d="M47 51V30L68 51H47Z" fill="white"/>
<path d="M122.987 41V19.8623H118.563V41H122.987ZM135.348 41V27.7725H135.611L145.367 41H149.029V19.8623H144.796V33.0312H144.532L134.806 19.8623H131.114V41H135.348ZM168.157 41L175.203 19.8623H170.442L165.726 36.0195H165.462L160.657 19.8623H155.662L162.811 41H168.157ZM195.825 37.2207H186.245V32.0791H195.283V28.5781H186.245V23.6416H195.825V19.8623H181.821V41H195.825V37.2207ZM213.034 41V23.6416H219.377V19.8623H202.268V23.6416H208.61V41H213.034ZM234.799 19.3203C228.588 19.3203 224.618 23.5684 224.618 30.4238C224.618 37.2793 228.529 41.542 234.799 41.542C241.054 41.542 244.95 37.2793 244.95 30.4238C244.95 23.583 241.039 19.3203 234.799 19.3203ZM234.799 23.2021C238.241 23.2021 240.438 26 240.438 30.4238C240.438 34.833 238.241 37.6602 234.799 37.6602C231.327 37.6602 229.145 34.833 229.145 30.4238C229.145 26 231.371 23.2021 234.799 23.2021Z" fill="white"/>
<path d="M670 30H702.05" stroke="white" stroke-width="4" stroke-miterlimit="10" stroke-linecap="round"/>
<path d="M686 18H702" stroke="white" stroke-width="4" stroke-miterlimit="10" stroke-linecap="round"/>
<path d="M670 42H686" stroke="white" stroke-width="4" stroke-miterlimit="10" stroke-linecap="round"/>
</svg>
