<svg width="166" height="56" viewBox="0 0 166 56" fill="none" xmlns="http://www.w3.org/2000/svg">
<path d="M11.1973 36.8047C11.1973 36.0299 10.9512 35.3919 10.459 34.8906C9.9668 34.3802 9.14648 33.9245 7.99805 33.5234C6.84961 33.1133 5.95638 32.735 5.31836 32.3887C3.19466 31.2493 2.13281 29.5632 2.13281 27.3301C2.13281 25.8171 2.5931 24.5729 3.51367 23.5977C4.43424 22.6224 5.68294 22.0436 7.25977 21.8613V18.8809H9.44727V21.8887C11.0332 22.1165 12.2591 22.791 13.125 23.9121C13.9909 25.0241 14.4238 26.4733 14.4238 28.2598H11.1152C11.1152 27.1113 10.8555 26.209 10.3359 25.5527C9.82552 24.8874 9.12826 24.5547 8.24414 24.5547C7.36914 24.5547 6.68555 24.7917 6.19336 25.2656C5.70117 25.7396 5.45508 26.4186 5.45508 27.3027C5.45508 28.0957 5.69661 28.7337 6.17969 29.2168C6.67188 29.6908 7.5013 30.1419 8.66797 30.5703C9.83464 30.9987 10.7507 31.3952 11.416 31.7598C12.0814 32.1243 12.6419 32.5436 13.0977 33.0176C13.5534 33.4824 13.9043 34.0202 14.1504 34.6309C14.3965 35.2415 14.5195 35.957 14.5195 36.7773C14.5195 38.3177 14.0456 39.5664 13.0977 40.5234C12.1589 41.4805 10.8464 42.0456 9.16016 42.2188V44.8848H6.98633V42.2324C5.18164 42.0319 3.79167 41.3848 2.81641 40.291C1.85026 39.1973 1.36719 37.748 1.36719 35.9434H4.68945C4.68945 37.0918 4.97656 37.9805 5.55078 38.6094C6.13411 39.2383 6.95443 39.5527 8.01172 39.5527C9.05078 39.5527 9.83919 39.3021 10.377 38.8008C10.9238 38.2995 11.1973 37.6341 11.1973 36.8047Z" fill="white"/>
<path d="M34.7734 44H28V17.8906L19.9141 20.3984V14.8906L34.0469 9.82812H34.7734V44ZM46.8906 27.2188L48.8594 9.875H67.9844V15.5234H54.4141L53.5703 22.8594C55.1797 22 56.8906 21.5703 58.7031 21.5703C61.9531 21.5703 64.5 22.5781 66.3438 24.5938C68.1875 26.6094 69.1094 29.4297 69.1094 33.0547C69.1094 35.2578 68.6406 37.2344 67.7031 38.9844C66.7812 40.7188 65.4531 42.0703 63.7188 43.0391C61.9844 43.9922 59.9375 44.4688 57.5781 44.4688C55.5156 44.4688 53.6016 44.0547 51.8359 43.2266C50.0703 42.3828 48.6719 41.2031 47.6406 39.6875C46.625 38.1719 46.0859 36.4453 46.0234 34.5078H52.7266C52.8672 35.9297 53.3594 37.0391 54.2031 37.8359C55.0625 38.6172 56.1797 39.0078 57.5547 39.0078C59.0859 39.0078 60.2656 38.4609 61.0938 37.3672C61.9219 36.2578 62.3359 34.6953 62.3359 32.6797C62.3359 30.7422 61.8594 29.2578 60.9062 28.2266C59.9531 27.1953 58.6016 26.6797 56.8516 26.6797C55.2422 26.6797 53.9375 27.1016 52.9375 27.9453L52.2812 28.5547L46.8906 27.2188ZM75.4844 52.5547L71.9453 50.7031L72.7891 49.1797C73.8359 47.2734 74.375 45.375 74.4062 43.4844V38.2344H80.125L80.1016 42.9219C80.0859 44.6562 79.6484 46.4062 78.7891 48.1719C77.9297 49.9375 76.8281 51.3984 75.4844 52.5547ZM103.539 9.52344V15.1016H102.883C99.8203 15.1484 97.3516 15.9453 95.4766 17.4922C93.6172 19.0391 92.5 21.1875 92.125 23.9375C93.9375 22.0938 96.2266 21.1719 98.9922 21.1719C101.961 21.1719 104.32 22.2344 106.07 24.3594C107.82 26.4844 108.695 29.2812 108.695 32.75C108.695 34.9688 108.211 36.9766 107.242 38.7734C106.289 40.5703 104.93 41.9688 103.164 42.9688C101.414 43.9688 99.4297 44.4688 97.2109 44.4688C93.6172 44.4688 90.7109 43.2188 88.4922 40.7188C86.2891 38.2188 85.1875 34.8828 85.1875 30.7109V28.2734C85.1875 24.5703 85.8828 21.3047 87.2734 18.4766C88.6797 15.6328 90.6875 13.4375 93.2969 11.8906C95.9219 10.3281 98.9609 9.53906 102.414 9.52344H103.539ZM96.9297 26.6094C95.8359 26.6094 94.8438 26.8984 93.9531 27.4766C93.0625 28.0391 92.4062 28.7891 91.9844 29.7266V31.7891C91.9844 34.0547 92.4297 35.8281 93.3203 37.1094C94.2109 38.375 95.4609 39.0078 97.0703 39.0078C98.5234 39.0078 99.6953 38.4375 100.586 37.2969C101.492 36.1406 101.945 34.6484 101.945 32.8203C101.945 30.9609 101.492 29.4609 100.586 28.3203C99.6797 27.1797 98.4609 26.6094 96.9297 26.6094ZM129.18 44H122.406V17.8906L114.32 20.3984V14.8906L128.453 9.82812H129.18V44ZM141.297 27.2188L143.266 9.875H162.391V15.5234H148.82L147.977 22.8594C149.586 22 151.297 21.5703 153.109 21.5703C156.359 21.5703 158.906 22.5781 160.75 24.5938C162.594 26.6094 163.516 29.4297 163.516 33.0547C163.516 35.2578 163.047 37.2344 162.109 38.9844C161.188 40.7188 159.859 42.0703 158.125 43.0391C156.391 43.9922 154.344 44.4688 151.984 44.4688C149.922 44.4688 148.008 44.0547 146.242 43.2266C144.477 42.3828 143.078 41.2031 142.047 39.6875C141.031 38.1719 140.492 36.4453 140.43 34.5078H147.133C147.273 35.9297 147.766 37.0391 148.609 37.8359C149.469 38.6172 150.586 39.0078 151.961 39.0078C153.492 39.0078 154.672 38.4609 155.5 37.3672C156.328 36.2578 156.742 34.6953 156.742 32.6797C156.742 30.7422 156.266 29.2578 155.312 28.2266C154.359 27.1953 153.008 26.6797 151.258 26.6797C149.648 26.6797 148.344 27.1016 147.344 27.9453L146.688 28.5547L141.297 27.2188Z" fill="white"/>
</svg>
