<svg width="127" height="23" viewBox="0 0 127 23" fill="none" xmlns="http://www.w3.org/2000/svg">
<path d="M4.9873 22V0.862305H0.563477V22H4.9873ZM17.3477 22V8.77246H17.6113L27.3672 22H31.0293V0.862305H26.7959V14.0312H26.5322L16.8057 0.862305H13.1143V22H17.3477ZM50.1572 22L57.2031 0.862305H52.4424L47.7256 17.0195H47.4619L42.6572 0.862305H37.6621L44.8105 22H50.1572ZM77.8252 18.2207H68.2451V13.0791H77.2832V9.57812H68.2451V4.6416H77.8252V0.862305H63.8213V22H77.8252V18.2207ZM95.0342 22V4.6416H101.377V0.862305H84.2676V4.6416H90.6104V22H95.0342ZM116.799 0.320312C110.588 0.320312 106.618 4.56836 106.618 11.4238C106.618 18.2793 110.529 22.542 116.799 22.542C123.054 22.542 126.95 18.2793 126.95 11.4238C126.95 4.58301 123.039 0.320312 116.799 0.320312ZM116.799 4.20215C120.241 4.20215 122.438 7 122.438 11.4238C122.438 15.833 120.241 18.6602 116.799 18.6602C113.327 18.6602 111.145 15.833 111.145 11.4238C111.145 7 113.371 4.20215 116.799 4.20215Z" fill="white"/>
</svg>
