<svg width="122" height="22" viewBox="0 0 122 22" fill="none" xmlns="http://www.w3.org/2000/svg">
<path d="M0.544922 15.6953C0.763672 19.2227 3.70312 21.4785 8.07812 21.4785C12.7539 21.4785 15.6797 19.1133 15.6797 15.3398C15.6797 12.373 14.0117 10.7324 9.96484 9.78906L7.79102 9.25586C5.2207 8.6543 4.18164 7.84766 4.18164 6.43945C4.18164 4.66211 5.79492 3.5 8.21484 3.5C10.5117 3.5 12.0977 4.63477 12.3848 6.45312H15.3652C15.1875 3.13086 12.2617 0.792969 8.25586 0.792969C3.94922 0.792969 1.07812 3.13086 1.07812 6.64453C1.07812 9.54297 2.70508 11.2656 6.27344 12.0996L8.81641 12.7148C11.4277 13.3301 12.5762 14.2324 12.5762 15.7363C12.5762 17.4863 10.7715 18.7578 8.31055 18.7578C5.67188 18.7578 3.83984 17.5684 3.58008 15.6953H0.544922ZM32.4824 21H35.7363L28.6133 1.27148H25.3184L18.1953 21H21.3398L23.1582 15.7637H30.6777L32.4824 21ZM26.8086 4.85352H27.041L29.8984 13.1934H23.9375L26.8086 4.85352ZM46.3047 21L53.3184 1.27148H50.0645L44.7734 17.1719H44.541L39.2227 1.27148H35.8867L42.9414 21H46.3047ZM59.8262 21V1.27148H56.7637V21H59.8262ZM67.7559 21V6.98633H67.9746L78.1055 21H80.8672V1.27148H77.8867V15.2852H77.668L67.5371 1.27148H64.7754V21H67.7559ZM102.66 13.1934V10.7324H94.5664V13.3027H99.6523V13.7266C99.625 16.6523 97.4102 18.6211 94.1836 18.6211C90.4785 18.6211 88.1543 15.75 88.1543 11.1016C88.1543 6.53516 90.4648 3.65039 94.1152 3.65039C96.8086 3.65039 98.6816 4.94922 99.4473 7.32812H102.523C101.854 3.33594 98.5996 0.792969 94.1152 0.792969C88.5918 0.792969 85.0234 4.83984 85.0234 11.1289C85.0234 17.5 88.5508 21.4785 94.1426 21.4785C99.3105 21.4785 102.66 18.2383 102.66 13.1934ZM105.955 15.6953C106.174 19.2227 109.113 21.4785 113.488 21.4785C118.164 21.4785 121.09 19.1133 121.09 15.3398C121.09 12.373 119.422 10.7324 115.375 9.78906L113.201 9.25586C110.631 8.6543 109.592 7.84766 109.592 6.43945C109.592 4.66211 111.205 3.5 113.625 3.5C115.922 3.5 117.508 4.63477 117.795 6.45312H120.775C120.598 3.13086 117.672 0.792969 113.666 0.792969C109.359 0.792969 106.488 3.13086 106.488 6.64453C106.488 9.54297 108.115 11.2656 111.684 12.0996L114.227 12.7148C116.838 13.3301 117.986 14.2324 117.986 15.7363C117.986 17.4863 116.182 18.7578 113.721 18.7578C111.082 18.7578 109.25 17.5684 108.99 15.6953H105.955Z" fill="white"/>
</svg>
